<?xml version="1.0" encoding="utf-8"?>
<!-- Generator: Adobe Illustrator 25.2.1, SVG Export Plug-In . SVG Version: 6.00 Build 0)  -->
<svg version="1.1" id="Camada_1" xmlns="http://www.w3.org/2000/svg" xmlns:xlink="http://www.w3.org/1999/xlink" x="0px" y="0px"
	 viewBox="0 0 137.5 60" style="enable-background:new 0 0 137.5 60;" xml:space="preserve">
<style type="text/css">
	.st0{fill:#7A1C3D;}
	.st1{fill:#C72D64;}
	.st2{fill:#C82C63;}
	.st3{fill:#7A1B3D;}
</style>
<g>
	<g>
		<path class="st0" d="M50.5,8.3c0.4-0.9,1-1.5,1.8-1.8c0.9-0.3,1.7-0.3,2.6-0.1c0.9,0.2,1.6,0.6,2.2,1.2c0.6,0.6,0.8,1.2,0.6,2
			c-0.3,1.7-0.6,3.4-0.8,5.2c-0.2,1.7-0.3,3.5-0.5,5.4c-0.1,1.3-0.1,2.6-0.1,3.9c0,1.3,0,2.4,0.1,3.5c0.1,1,0.1,1.7,0.1,2.2
			c0,0.4,0,0.7,0,0.7c0.1,0.4,0,0.8-0.3,1.2c-0.3,0.4-0.8,0.7-1.3,0.9c-0.5,0.3-1.2,0.4-1.8,0.6c-0.7,0.1-1.3,0.2-2,0.1
			c-0.6-0.1-1.2-0.2-1.7-0.5c-0.5-0.3-0.8-0.7-1-1.2c0-0.1-0.1-0.2-0.1-0.3c0-0.1-0.1-0.2-0.1-0.4c-1.4,0.9-2.7,1.4-3.9,1.8
			c-1.3,0.3-2.5,0.4-3.6,0.2c-1.7-0.2-3.2-0.7-4.3-1.6c-1.2-0.8-2.1-1.9-2.9-3.1c-0.7-1.3-1.3-2.7-1.6-4.2c-0.3-1.5-0.5-3.1-0.5-4.7
			c0-1.6,0.1-3.2,0.3-4.8c0.3-1.6,0.6-3,1-4.4c0.1-0.5,0.3-1,0.5-1.4c0.2-0.4,0.4-0.8,0.7-1.1c0.4-0.5,0.8-0.9,1.3-1.2
			c0.5-0.3,1.2-0.3,2-0.1c1.1,0.3,1.9,0.7,2.4,1.2s0.8,1,0.9,1.5c0.1,0.5,0.1,1,0,1.5c-0.1,0.5-0.2,1-0.4,1.5
			c-0.1,0.5-0.3,1.1-0.5,1.8s-0.3,1.5-0.4,2.4c-0.4,3.3-0.4,5.8,0.2,7.4c0.6,1.6,1.6,2.3,3,2.3c0.7,0,1.3-0.3,1.9-0.7
			c0.5-0.5,1-1,1.5-1.8c0.4-0.7,0.8-1.6,1.1-2.5c0.3-0.9,0.6-1.9,0.9-2.9c0.4-1.5,0.7-3.1,1.1-4.7C49.3,11.4,49.8,9.9,50.5,8.3z"/>
		<path class="st0" d="M66.8,7.1c1.4-0.2,2.7-0.3,4-0.2c1.3,0.1,2.7,0.4,4,1c2.1,0.9,3.8,2,5,3.5c1.2,1.5,2.1,3.1,2.5,4.8
			c0.4,1.7,0.5,3.5,0.1,5.3c-0.4,1.8-1.1,3.4-2.2,4.9c-1.1,1.5-2.6,2.7-4.4,3.7c-1.8,1-4,1.5-6.5,1.7c0.1,2,0.1,3.7,0.1,5.1
			c0,1.4,0.1,2.1,0.1,2.2c0.1,0.4-0.1,0.7-0.4,1c-0.3,0.3-0.8,0.5-1.4,0.7c-0.6,0.2-1.2,0.3-1.9,0.3c-0.7,0-1.4,0-2-0.2
			s-1.2-0.4-1.7-0.7c-0.5-0.4-0.8-0.8-1-1.4s-0.3-1.6-0.4-3.1c-0.1-1.5-0.2-3.2-0.2-5.1c-0.1-1.9-0.1-4-0.1-6.1c0-2.1,0-4.2,0-6.1
			s0-3.6,0-5.1c0-1.5,0-2.5,0-3.1c0-0.1,0-0.3,0-0.7c0-0.3,0.1-0.7,0.2-1.1C61,8,61.2,7.6,61.6,7.3s1-0.6,1.8-0.8
			c0.9-0.1,1.5-0.2,2.1,0C66,6.6,66.5,6.8,66.8,7.1z M68.9,24.1c1,0,1.9-0.2,2.7-0.6c0.8-0.4,1.4-0.9,1.8-1.6s0.7-1.3,0.7-2
			c0.1-0.7-0.1-1.4-0.5-2s-1-1.1-1.9-1.6c-0.9-0.4-2-0.6-3.4-0.7c0.1,1.4,0.2,2.7,0.3,4.1C68.8,21.1,68.9,22.6,68.9,24.1z M92.4,7
			c2.2-0.4,4.2-0.3,6,0.2c1.7,0.5,3.2,1.4,4.5,2.5c1.2,1.1,2.2,2.5,2.9,4.1c0.7,1.6,1.1,3.3,1.2,5c0.1,1.7-0.1,3.4-0.5,5.1
			c-0.5,1.7-1.2,3.2-2.3,4.5c-1.1,1.3-2.5,2.3-4.2,3.1c-1.7,0.8-3.8,1.1-6.2,1c0.1,1,0.1,2.1,0.1,3.2c0,1.1-0.1,2.2-0.1,3.2
			c-0.1,0.7-0.2,1.3-0.6,1.8s-1,0.8-2,1c-0.6,0.1-1.2,0.1-1.8,0.1c-0.6,0-1.2-0.2-1.8-0.4c-0.5-0.2-1-0.5-1.4-0.9
			c-0.4-0.4-0.7-0.9-0.8-1.5c-0.1-0.7-0.2-1.6-0.2-2.8c0-1.2,0-2.6,0-4.2c0.1-4,0.2-7.9,0.2-11.8c0-3.9,0-7.9-0.1-12
			c0-0.1,0-0.4,0-0.8c0-0.4,0-0.8,0.2-1.2c0.1-0.4,0.4-0.8,0.8-1.2c0.4-0.4,1-0.7,1.8-0.8c1.1-0.2,1.9-0.2,2.5,0
			c0.6,0.3,1,0.6,1.3,1c0.1,0.2,0.3,0.4,0.3,0.6c0.1,0.2,0.1,0.4,0.2,0.6C92.3,6.6,92.4,6.8,92.4,7L92.4,7z M93.6,23.9
			c1.2,0,2.3-0.3,3.1-0.8c0.8-0.5,1.4-1.1,1.8-1.9c0.4-0.7,0.6-1.5,0.5-2.4c0-0.8-0.3-1.6-0.7-2.3c-0.4-0.7-1.1-1.3-2-1.7
			c-0.9-0.4-1.9-0.6-3.2-0.5c0.1,1.4,0.2,2.9,0.3,4.4C93.4,20.3,93.5,22,93.6,23.9z"/>
		<path class="st1" d="M130.6,6.4c0.5,0,1,0.1,1.6,0.3c0.5,0.2,0.9,0.4,1.3,0.8c0.4,0.3,0.6,0.7,0.8,1.2c0.2,0.5,0.2,1,0.1,1.6
			c-0.4,2.6-1,5.2-1.8,7.9c-0.8,2.7-1.7,5.3-2.8,7.9s-2.4,5.1-3.8,7.5c-1.5,2.4-3.1,4.7-5,6.9c-0.8,0.9-1.6,1.4-2.4,1.5
			c-0.8,0-1.7-0.4-2.8-1.4c-0.7-0.7-1.3-1.5-1.7-2.4c-0.4-0.9-0.4-1.7,0-2.6c0.7-1.2,1.4-2.4,2.2-3.5c0.8-1.1,1.6-2.2,2.4-3.5
			c-1.3-1.1-2.5-2.4-3.6-3.9c-1.1-1.5-2-3.1-2.8-4.8c-0.8-1.7-1.4-3.5-1.9-5.3c-0.5-1.8-0.8-3.5-1-5.2c-0.1-0.8,0.2-1.6,0.8-2.2
			s1.3-1.1,2.2-1.4c0.8-0.3,1.6-0.3,2.4-0.2c0.8,0.2,1.3,0.7,1.6,1.6c0.4,1.2,0.7,2.5,1.2,3.8c0.4,1.3,0.9,2.6,1.4,3.8
			c0.5,1.2,1.1,2.3,1.8,3.4c0.7,1,1.4,1.9,2.3,2.6c0.9-1.8,1.6-3.6,2.3-5.5c0.7-1.9,1.3-3.8,1.8-5.8c0.2-0.9,0.5-1.6,1.1-2.2
			C128.6,6.7,129.5,6.4,130.6,6.4z"/>
	</g>
</g>
<g>
	<g>
		<path class="st1" d="M9.6,7.6c0.6,0.6,0.9,1.4,1.1,2.2c0.5,2,1.1,3.9,1.8,5.8c0.7,1.9,1.4,3.7,2.3,5.5c0.9-0.7,1.6-1.5,2.3-2.6
			c0.7-1,1.2-2.2,1.8-3.4c0.5-1.2,1-2.5,1.4-3.8c0.4-1.3,0.8-2.6,1.2-3.8c0.3-0.9,0.8-1.4,1.6-1.6c0.8-0.2,1.6-0.1,2.4,0.2
			c0.8,0.3,1.5,0.8,2.2,1.4c0.6,0.7,0.9,1.4,0.8,2.2c-0.2,1.7-0.6,3.4-1,5.2c-0.5,1.8-1.1,3.6-1.9,5.3c-0.8,1.7-1.7,3.3-2.8,4.8
			c-1.1,1.5-2.3,2.8-3.6,3.9c0.7,1.2,1.5,2.4,2.4,3.5c0.8,1.1,1.6,2.2,2.2,3.5c0.4,0.8,0.4,1.7,0,2.6c-0.4,0.9-1,1.7-1.7,2.4
			c-1.1,0.9-2.1,1.4-2.8,1.4c-0.8,0-1.5-0.5-2.4-1.5c-1.9-2.2-3.5-4.5-5-6.9c-1.5-2.4-2.7-5-3.8-7.5c-1.1-2.6-2-5.2-2.8-7.9
			c-0.8-2.7-1.4-5.3-1.8-7.9C3.3,9.9,3.3,9.4,3.5,8.9c0.2-0.5,0.4-0.9,0.8-1.2c0.4-0.3,0.8-0.6,1.3-0.8c0.5-0.2,1-0.3,1.6-0.3
			C8.2,6.6,9.1,6.9,9.6,7.6z"/>
	</g>
</g>
<circle class="st0" cx="15.9" cy="5.3" r="3.8"/>
<g>
	<g>
		<g>
			<path class="st2" d="M89.1,49.4c0.3,0.2,0.5,0.4,0.7,0.7v-0.9h2.6v6.6h-2.6v-0.9c-0.2,0.3-0.4,0.5-0.7,0.7
				c-0.3,0.2-0.7,0.3-1.1,0.3c-0.5,0-1-0.1-1.4-0.4c-0.4-0.3-0.7-0.7-1-1.2c-0.2-0.5-0.4-1.1-0.4-1.8c0-0.7,0.1-1.3,0.4-1.8
				c0.2-0.5,0.6-0.9,1-1.2c0.4-0.3,0.9-0.4,1.4-0.4C88.4,49.2,88.8,49.2,89.1,49.4z M88.2,51.7c-0.2,0.2-0.3,0.5-0.3,0.8
				s0.1,0.6,0.3,0.8c0.2,0.2,0.4,0.3,0.7,0.3c0.3,0,0.5-0.1,0.7-0.3c0.2-0.2,0.3-0.5,0.3-0.8s-0.1-0.6-0.3-0.8
				c-0.2-0.2-0.4-0.3-0.7-0.3C88.6,51.4,88.3,51.5,88.2,51.7z"/>
			<path class="st2" d="M97,49.4c0.3,0.2,0.5,0.4,0.7,0.7v-0.9h2.6v6.5c0,0.6-0.1,1.2-0.3,1.7c-0.2,0.5-0.6,0.9-1.1,1.2
				c-0.5,0.3-1.1,0.5-1.9,0.5c-1.1,0-1.9-0.2-2.5-0.7c-0.6-0.5-1-1.2-1.1-2h2.5c0.1,0.3,0.3,0.5,0.8,0.5c0.3,0,0.5-0.1,0.7-0.2
				c0.2-0.2,0.3-0.4,0.3-0.9v-0.8c-0.2,0.3-0.4,0.5-0.7,0.7c-0.3,0.2-0.7,0.3-1.1,0.3c-0.5,0-1-0.1-1.4-0.4c-0.4-0.3-0.7-0.7-1-1.2
				c-0.2-0.5-0.4-1.1-0.4-1.8c0-0.7,0.1-1.3,0.4-1.8c0.2-0.5,0.6-0.9,1-1.2c0.4-0.3,0.9-0.4,1.4-0.4C96.3,49.2,96.7,49.2,97,49.4z
				 M96.1,51.7c-0.2,0.2-0.3,0.5-0.3,0.8s0.1,0.6,0.3,0.8c0.2,0.2,0.4,0.3,0.7,0.3s0.5-0.1,0.7-0.3c0.2-0.2,0.3-0.5,0.3-0.8
				s-0.1-0.6-0.3-0.8c-0.2-0.2-0.4-0.3-0.7-0.3S96.3,51.5,96.1,51.7z"/>
			<path class="st2" d="M107.8,53h-4.1c0,0.3,0.1,0.5,0.2,0.7c0.1,0.1,0.3,0.2,0.5,0.2c0.3,0,0.5-0.1,0.6-0.4h2.7
				c-0.1,0.5-0.3,0.9-0.6,1.3c-0.3,0.4-0.7,0.7-1.1,0.9c-0.5,0.2-1,0.3-1.5,0.3c-0.7,0-1.2-0.1-1.7-0.4c-0.5-0.3-0.9-0.7-1.2-1.2
				c-0.3-0.5-0.4-1.1-0.4-1.8c0-0.7,0.1-1.3,0.4-1.8c0.3-0.5,0.7-0.9,1.2-1.2c0.5-0.3,1.1-0.4,1.7-0.4c0.7,0,1.2,0.1,1.7,0.4
				c0.5,0.3,0.9,0.7,1.2,1.1c0.3,0.5,0.4,1.1,0.4,1.8C107.8,52.6,107.8,52.8,107.8,53z M105.2,51.9c0-0.2-0.1-0.4-0.2-0.6
				c-0.1-0.1-0.3-0.2-0.5-0.2c-0.5,0-0.7,0.2-0.8,0.7H105.2z"/>
			<path class="st2" d="M115,50c0.4,0.5,0.6,1.2,0.6,2v3.8h-2.6v-3.5c0-0.3-0.1-0.6-0.3-0.7c-0.2-0.2-0.4-0.3-0.7-0.3
				c-0.3,0-0.5,0.1-0.7,0.3c-0.2,0.2-0.2,0.4-0.2,0.7v3.5h-2.6v-6.6h2.6v1c0.2-0.3,0.5-0.6,0.8-0.8c0.3-0.2,0.7-0.3,1.2-0.3
				C114,49.2,114.6,49.4,115,50z"/>
			<path class="st2" d="M121.9,49.9c0.6,0.5,1,1.1,1.1,2h-2.7c-0.1-0.3-0.3-0.5-0.6-0.5c-0.2,0-0.4,0.1-0.5,0.3
				c-0.1,0.2-0.2,0.5-0.2,0.9c0,0.4,0.1,0.7,0.2,0.9c0.1,0.2,0.3,0.3,0.5,0.3c0.3,0,0.5-0.2,0.6-0.5h2.7c-0.2,0.9-0.5,1.5-1.1,2
				c-0.6,0.5-1.3,0.7-2.2,0.7c-0.7,0-1.2-0.1-1.7-0.4c-0.5-0.3-0.9-0.7-1.2-1.2c-0.3-0.5-0.4-1.1-0.4-1.8c0-0.7,0.1-1.3,0.4-1.8
				c0.3-0.5,0.7-0.9,1.2-1.2c0.5-0.3,1.1-0.4,1.7-0.4C120.6,49.2,121.3,49.4,121.9,49.9z"/>
			<path class="st2" d="M124.1,46.5c0.3-0.2,0.6-0.4,1.1-0.4c0.4,0,0.8,0.1,1.1,0.4c0.3,0.2,0.4,0.6,0.4,0.9c0,0.4-0.1,0.7-0.4,0.9
				c-0.3,0.2-0.6,0.4-1.1,0.4c-0.5,0-0.8-0.1-1.1-0.4c-0.3-0.2-0.4-0.5-0.4-0.9C123.7,47.1,123.8,46.8,124.1,46.5z M126.4,49.2v6.6
				h-2.6v-6.6H126.4z"/>
			<path class="st2" d="M131.1,49.4c0.3,0.2,0.5,0.4,0.7,0.7v-0.9h2.6v6.6h-2.6v-0.9c-0.2,0.3-0.4,0.5-0.7,0.7
				c-0.3,0.2-0.7,0.3-1.1,0.3c-0.5,0-1-0.1-1.4-0.4c-0.4-0.3-0.7-0.7-1-1.2c-0.2-0.5-0.4-1.1-0.4-1.8c0-0.7,0.1-1.3,0.4-1.8
				c0.2-0.5,0.6-0.9,1-1.2c0.4-0.3,0.9-0.4,1.4-0.4C130.4,49.2,130.7,49.2,131.1,49.4z M130.1,51.7c-0.2,0.2-0.3,0.5-0.3,0.8
				s0.1,0.6,0.3,0.8c0.2,0.2,0.4,0.3,0.7,0.3c0.3,0,0.5-0.1,0.7-0.3c0.2-0.2,0.3-0.5,0.3-0.8s-0.1-0.6-0.3-0.8
				c-0.2-0.2-0.4-0.3-0.7-0.3C130.5,51.4,130.3,51.5,130.1,51.7z"/>
		</g>
	</g>
	<ellipse class="st3" cx="125.1" cy="47.4" rx="1.5" ry="1.3"/>
</g>
</svg>
