<?xml version="1.0" encoding="utf-8"?>
<!-- Generator: Adobe Illustrator 25.2.1, SVG Export Plug-In . SVG Version: 6.00 Build 0)  -->
<svg version="1.1" id="Camada_1" xmlns="http://www.w3.org/2000/svg" xmlns:xlink="http://www.w3.org/1999/xlink" x="0px" y="0px"
	 viewBox="0 0 137.5 60" style="enable-background:new 0 0 137.5 60;" xml:space="preserve">
<style type="text/css">
	.st0{fill:#7A1C3D;}
	.st1{fill:#C72D64;}
	.st2{fill:#C82C63;}
	.st3{fill:#7A1B3D;}
</style>
<g>
	<g>
		<g>
			<path class="st0" d="M50,7.4c0.4-0.9,1-1.6,1.9-1.8c0.9-0.3,1.8-0.3,2.7-0.1c0.9,0.2,1.6,0.6,2.2,1.2c0.6,0.6,0.8,1.3,0.6,2
				c-0.3,1.8-0.6,3.5-0.8,5.3c-0.2,1.8-0.4,3.6-0.5,5.6C56,21,56,22.3,56,23.6c0,1.3,0,2.5,0.1,3.6c0.1,1,0.1,1.8,0.1,2.2
				c0,0.4,0,0.7,0,0.8c0.1,0.4,0,0.8-0.3,1.2c-0.3,0.4-0.8,0.7-1.3,0.9c-0.6,0.3-1.2,0.5-1.9,0.6C52,33,51.3,33,50.7,33
				c-0.7-0.1-1.2-0.3-1.7-0.5c-0.5-0.3-0.8-0.7-1-1.2c0-0.1-0.1-0.2-0.1-0.3c0-0.1-0.1-0.2-0.1-0.4c-1.4,0.9-2.8,1.5-4,1.8
				c-1.3,0.3-2.5,0.4-3.7,0.3c-1.8-0.2-3.3-0.7-4.5-1.6c-1.2-0.9-2.2-1.9-3-3.2c-0.8-1.3-1.3-2.7-1.6-4.3c-0.3-1.6-0.5-3.2-0.5-4.9
				c0-1.7,0.1-3.3,0.3-5c0.3-1.6,0.6-3.1,1.1-4.5c0.2-0.5,0.3-1,0.5-1.4c0.2-0.4,0.4-0.8,0.7-1.1c0.4-0.5,0.8-0.9,1.4-1.2
				C34.9,5,35.6,5,36.4,5.2c1.2,0.3,2,0.7,2.5,1.3c0.5,0.5,0.8,1.1,1,1.6c0.1,0.5,0.1,1,0,1.5c-0.1,0.5-0.2,1-0.4,1.6
				c-0.2,0.5-0.3,1.2-0.5,1.9c-0.2,0.7-0.3,1.5-0.5,2.4c-0.5,3.4-0.4,6,0.3,7.6c0.6,1.6,1.6,2.4,3,2.3c0.7,0,1.4-0.3,1.9-0.8
				c0.6-0.5,1.1-1.1,1.5-1.8c0.4-0.7,0.8-1.6,1.2-2.6c0.3-1,0.6-2,0.9-3c0.4-1.6,0.8-3.2,1.1-4.8C48.7,10.7,49.3,9.1,50,7.4z"/>
			<path class="st0" d="M66.7,6.2C68.1,6,69.5,5.9,70.9,6c1.4,0.1,2.8,0.4,4.2,1c2.2,0.9,3.9,2.1,5.2,3.6c1.3,1.5,2.1,3.2,2.6,5
				c0.4,1.8,0.5,3.6,0.1,5.4c-0.4,1.8-1.1,3.5-2.3,5c-1.1,1.5-2.7,2.8-4.6,3.8c-1.9,1-4.2,1.6-6.7,1.7c0.1,2.1,0.1,3.9,0.1,5.3
				c0,1.4,0.1,2.2,0.1,2.3c0.1,0.4-0.1,0.7-0.4,1.1c-0.4,0.3-0.8,0.6-1.4,0.8c-0.6,0.2-1.2,0.3-1.9,0.3c-0.7,0-1.4,0-2-0.2
				c-0.6-0.1-1.2-0.4-1.7-0.8c-0.5-0.4-0.8-0.9-1-1.5c-0.2-0.6-0.3-1.7-0.4-3.2s-0.2-3.3-0.2-5.3c-0.1-2-0.1-4.1-0.1-6.3
				c0-2.2,0-4.3,0-6.3c0-2,0-3.7,0-5.3c0-1.5,0-2.6,0-3.2c0-0.1,0-0.4,0-0.7c0-0.3,0.1-0.7,0.2-1.1c0.2-0.4,0.4-0.8,0.8-1.2
				c0.4-0.4,1-0.6,1.9-0.8c0.9-0.2,1.6-0.2,2.1,0C65.9,5.7,66.4,6,66.7,6.2z M68.9,23.7c1.1,0,2-0.2,2.8-0.6c0.8-0.4,1.4-1,1.9-1.6
				c0.4-0.6,0.7-1.3,0.7-2.1c0.1-0.7-0.1-1.4-0.5-2.1c-0.4-0.6-1-1.2-1.9-1.6c-0.9-0.4-2.1-0.7-3.5-0.7c0.1,1.4,0.2,2.8,0.3,4.2
				C68.8,20.7,68.9,22.2,68.9,23.7z M93.1,6.1c2.3-0.4,4.4-0.4,6.2,0.2c1.8,0.6,3.3,1.4,4.6,2.6c1.3,1.2,2.3,2.6,3,4.3
				c0.7,1.7,1.1,3.4,1.3,5.1c0.1,1.8-0.1,3.5-0.5,5.3c-0.5,1.7-1.3,3.3-2.4,4.6c-1.1,1.3-2.6,2.4-4.3,3.2c-1.8,0.8-3.9,1.2-6.4,1.1
				c0.1,1.1,0.1,2.2,0.1,3.3c0,1.1-0.1,2.2-0.1,3.3c-0.1,0.7-0.3,1.3-0.6,1.8c-0.3,0.5-1,0.8-2.1,1c-0.6,0.1-1.2,0.1-1.9,0.1
				c-0.7,0-1.3-0.2-1.8-0.4c-0.6-0.2-1.1-0.5-1.5-1c-0.4-0.4-0.7-0.9-0.8-1.5c-0.2-0.7-0.2-1.7-0.3-2.9c0-1.3,0-2.7,0-4.3
				c0.1-4.1,0.2-8.1,0.2-12.2c0-4,0-8.2-0.1-12.4c0-0.1,0-0.4,0-0.8c0-0.4,0-0.8,0.2-1.3c0.1-0.4,0.4-0.9,0.8-1.3
				c0.4-0.4,1-0.7,1.9-0.9c1.1-0.2,2-0.2,2.6,0c0.6,0.3,1.1,0.6,1.4,1.1c0.2,0.2,0.3,0.4,0.3,0.6c0.1,0.2,0.1,0.4,0.2,0.6
				C93.1,5.7,93.1,5.9,93.1,6.1L93.1,6.1z M94.3,23.6c1.3,0,2.3-0.3,3.2-0.8c0.8-0.5,1.5-1.2,1.9-1.9c0.4-0.8,0.6-1.6,0.5-2.4
				c0-0.9-0.3-1.7-0.8-2.4c-0.5-0.7-1.1-1.3-2-1.7c-0.9-0.4-2-0.6-3.3-0.5c0.1,1.5,0.2,3,0.3,4.6C94.2,19.9,94.3,21.6,94.3,23.6z"/>
			<path class="st1" d="M132.5,5.5c0.5,0,1.1,0.1,1.6,0.3c0.5,0.2,1,0.5,1.3,0.8c0.4,0.4,0.7,0.8,0.8,1.3c0.2,0.5,0.2,1,0.1,1.6
				c-0.5,2.7-1.1,5.4-1.9,8.1c-0.8,2.7-1.7,5.4-2.8,8.1c-1.1,2.7-2.4,5.3-3.9,7.8c-1.5,2.5-3.2,4.9-5.1,7.1c-0.9,1-1.7,1.5-2.4,1.5
				c-0.8,0-1.7-0.4-2.9-1.4c-0.8-0.7-1.3-1.5-1.8-2.4c-0.4-0.9-0.4-1.8,0-2.7c0.7-1.3,1.4-2.5,2.3-3.6c0.9-1.1,1.7-2.3,2.4-3.6
				c-1.4-1.1-2.6-2.4-3.7-4c-1.1-1.6-2-3.2-2.8-5c-0.8-1.8-1.4-3.6-1.9-5.4c-0.5-1.9-0.9-3.7-1.1-5.4c-0.1-0.9,0.2-1.6,0.8-2.3
				c0.6-0.7,1.4-1.2,2.2-1.5c0.9-0.3,1.7-0.4,2.5-0.2c0.8,0.2,1.3,0.8,1.6,1.7c0.4,1.3,0.8,2.6,1.2,4c0.4,1.4,0.9,2.7,1.5,3.9
				c0.5,1.3,1.2,2.4,1.8,3.5c0.7,1.1,1.4,2,2.3,2.7c0.9-1.9,1.7-3.7,2.4-5.7c0.7-1.9,1.3-3.9,1.8-6c0.2-0.9,0.6-1.7,1.1-2.3
				C130.5,5.8,131.3,5.5,132.5,5.5z"/>
		</g>
	</g>
	<g>
		<g>
			<path class="st1" d="M7.8,6.7C8.4,7.4,8.8,8.2,9,9c0.5,2.1,1.1,4.1,1.8,6s1.5,3.8,2.4,5.7c0.9-0.7,1.7-1.6,2.3-2.7
				c0.7-1.1,1.3-2.2,1.8-3.5c0.5-1.2,1-2.6,1.5-3.9c0.4-1.4,0.8-2.7,1.2-4c0.3-0.9,0.8-1.5,1.6-1.7c0.8-0.2,1.6-0.1,2.5,0.2
				C25,5.5,25.7,6,26.3,6.7c0.6,0.7,0.9,1.5,0.8,2.3c-0.2,1.7-0.6,3.5-1.1,5.4c-0.5,1.9-1.2,3.7-1.9,5.4c-0.8,1.8-1.7,3.4-2.8,5
				c-1.1,1.6-2.3,2.9-3.7,4c0.8,1.3,1.6,2.5,2.4,3.6c0.9,1.1,1.6,2.3,2.3,3.6c0.4,0.9,0.4,1.7,0,2.7c-0.4,0.9-1,1.7-1.8,2.4
				c-1.2,1-2.1,1.4-2.9,1.4c-0.8,0-1.6-0.6-2.4-1.5c-1.9-2.2-3.6-4.6-5.1-7.1c-1.5-2.5-2.8-5.1-3.9-7.8C5,23.4,4,20.6,3.3,17.9
				s-1.4-5.5-1.9-8.1C1.3,9.2,1.3,8.6,1.5,8.1c0.2-0.5,0.4-0.9,0.8-1.3c0.4-0.3,0.8-0.6,1.3-0.8c0.5-0.2,1.1-0.3,1.6-0.3
				C6.4,5.8,7.2,6.1,7.8,6.7z"/>
		</g>
	</g>
	<circle class="st0" cx="14.3" cy="4.3" r="3.9"/>
	<g>
		<g>
			<g>
				<path class="st2" d="M89.7,49.8c0.3,0.2,0.6,0.4,0.7,0.7v-0.9h2.7v6.8h-2.7v-0.9c-0.2,0.3-0.4,0.6-0.7,0.7
					c-0.3,0.2-0.7,0.3-1.1,0.3c-0.5,0-1-0.1-1.4-0.4c-0.4-0.3-0.8-0.7-1-1.2c-0.2-0.5-0.4-1.1-0.4-1.9c0-0.7,0.1-1.3,0.4-1.9
					c0.2-0.5,0.6-0.9,1-1.2c0.4-0.3,0.9-0.4,1.4-0.4C89,49.6,89.4,49.7,89.7,49.8z M88.8,52.2c-0.2,0.2-0.3,0.5-0.3,0.8
					c0,0.4,0.1,0.6,0.3,0.8c0.2,0.2,0.4,0.3,0.7,0.3c0.3,0,0.5-0.1,0.7-0.3c0.2-0.2,0.3-0.5,0.3-0.8c0-0.4-0.1-0.6-0.3-0.8
					c-0.2-0.2-0.4-0.3-0.7-0.3C89.2,51.9,88.9,52,88.8,52.2z"/>
				<path class="st2" d="M97.9,49.8c0.3,0.2,0.6,0.4,0.7,0.7v-0.9h2.7v6.6c0,0.6-0.1,1.2-0.3,1.7c-0.2,0.5-0.6,0.9-1.1,1.2
					c-0.5,0.3-1.2,0.5-2,0.5c-1.1,0-1.9-0.3-2.6-0.8c-0.6-0.5-1-1.2-1.1-2.1h2.6c0.1,0.4,0.4,0.5,0.9,0.5c0.3,0,0.6-0.1,0.7-0.2
					c0.2-0.2,0.3-0.5,0.3-0.9v-0.8c-0.2,0.3-0.4,0.6-0.7,0.7c-0.3,0.2-0.7,0.3-1.1,0.3c-0.5,0-1-0.1-1.4-0.4c-0.4-0.3-0.8-0.7-1-1.2
					c-0.2-0.5-0.4-1.1-0.4-1.9c0-0.7,0.1-1.3,0.4-1.9c0.2-0.5,0.6-0.9,1-1.2c0.4-0.3,0.9-0.4,1.4-0.4C97.2,49.6,97.6,49.7,97.9,49.8
					z M96.9,52.2c-0.2,0.2-0.3,0.5-0.3,0.8c0,0.4,0.1,0.6,0.3,0.8c0.2,0.2,0.4,0.3,0.7,0.3c0.3,0,0.5-0.1,0.7-0.3
					c0.2-0.2,0.3-0.5,0.3-0.8c0-0.4-0.1-0.6-0.3-0.8c-0.2-0.2-0.4-0.3-0.7-0.3C97.3,51.9,97.1,52,96.9,52.2z"/>
				<path class="st2" d="M109,53.5h-4.3c0,0.3,0.1,0.6,0.2,0.7c0.1,0.1,0.3,0.2,0.5,0.2c0.3,0,0.5-0.1,0.6-0.4h2.8
					c-0.1,0.5-0.3,0.9-0.6,1.3c-0.3,0.4-0.7,0.7-1.2,0.9c-0.5,0.2-1,0.3-1.5,0.3c-0.7,0-1.3-0.1-1.8-0.4c-0.5-0.3-0.9-0.7-1.2-1.2
					c-0.3-0.5-0.4-1.1-0.4-1.8c0-0.7,0.1-1.3,0.4-1.8c0.3-0.5,0.7-0.9,1.2-1.2c0.5-0.3,1.1-0.4,1.8-0.4s1.3,0.1,1.8,0.4
					c0.5,0.3,0.9,0.7,1.2,1.2c0.3,0.5,0.4,1.1,0.4,1.8C109,53.2,109,53.3,109,53.5z M106.3,52.4c0-0.3-0.1-0.4-0.2-0.6
					c-0.1-0.1-0.3-0.2-0.5-0.2c-0.5,0-0.8,0.3-0.8,0.8H106.3z"/>
				<path class="st2" d="M116.4,50.4c0.4,0.5,0.7,1.2,0.7,2.1v3.9h-2.7v-3.6c0-0.3-0.1-0.6-0.3-0.8c-0.2-0.2-0.4-0.3-0.7-0.3
					c-0.3,0-0.5,0.1-0.7,0.3c-0.2,0.2-0.3,0.4-0.3,0.8v3.6h-2.7v-6.8h2.7v1c0.2-0.3,0.5-0.6,0.8-0.8c0.3-0.2,0.8-0.3,1.2-0.3
					C115.4,49.6,116,49.9,116.4,50.4z"/>
				<path class="st2" d="M123.5,50.3c0.6,0.5,1,1.2,1.1,2.1h-2.8c-0.1-0.4-0.3-0.5-0.6-0.5c-0.2,0-0.4,0.1-0.5,0.3
					c-0.1,0.2-0.2,0.5-0.2,0.9c0,0.4,0.1,0.7,0.2,0.9c0.1,0.2,0.3,0.3,0.5,0.3c0.3,0,0.5-0.2,0.6-0.5h2.8c-0.2,0.9-0.5,1.6-1.1,2.1
					s-1.3,0.7-2.2,0.7c-0.7,0-1.3-0.1-1.8-0.4c-0.5-0.3-0.9-0.7-1.2-1.2c-0.3-0.5-0.4-1.1-0.4-1.8c0-0.7,0.1-1.3,0.4-1.8
					c0.3-0.5,0.7-0.9,1.2-1.2s1.1-0.4,1.8-0.4C122.2,49.6,122.9,49.8,123.5,50.3z"/>
				<path class="st2" d="M125.8,46.9c0.3-0.3,0.7-0.4,1.1-0.4c0.5,0,0.8,0.1,1.1,0.4c0.3,0.3,0.4,0.6,0.4,1c0,0.4-0.1,0.7-0.4,0.9
					s-0.6,0.4-1.1,0.4c-0.5,0-0.8-0.1-1.1-0.4c-0.3-0.2-0.4-0.6-0.4-0.9C125.3,47.4,125.5,47.1,125.8,46.9z M128.2,49.7v6.8h-2.7
					v-6.8H128.2z"/>
				<path class="st2" d="M133,49.8c0.3,0.2,0.6,0.4,0.7,0.7v-0.9h2.7v6.8h-2.7v-0.9c-0.2,0.3-0.4,0.6-0.7,0.7
					c-0.3,0.2-0.7,0.3-1.1,0.3c-0.5,0-1-0.1-1.4-0.4c-0.4-0.3-0.8-0.7-1-1.2c-0.2-0.5-0.4-1.1-0.4-1.9c0-0.7,0.1-1.3,0.4-1.9
					c0.2-0.5,0.6-0.9,1-1.2c0.4-0.3,0.9-0.4,1.4-0.4C132.3,49.6,132.6,49.7,133,49.8z M132,52.2c-0.2,0.2-0.3,0.5-0.3,0.8
					c0,0.4,0.1,0.6,0.3,0.8s0.4,0.3,0.7,0.3c0.3,0,0.5-0.1,0.7-0.3c0.2-0.2,0.3-0.5,0.3-0.8c0-0.4-0.1-0.6-0.3-0.8
					c-0.2-0.2-0.4-0.3-0.7-0.3C132.4,51.9,132.2,52,132,52.2z"/>
			</g>
		</g>
		<ellipse class="st3" cx="126.9" cy="47.8" rx="1.6" ry="1.4"/>
	</g>
	<g>
		<g>
			<path class="st0" d="M106.4,49l-0.4-0.3c-0.3-0.2-0.6-0.2-0.9,0l-0.3,0.2c-0.4,0.3-1,0.1-1.2-0.4l0,0c-0.1-0.3,0-0.7,0.2-0.9
				l1.3-1.1c0.3-0.2,0.7-0.2,1,0l1.3,1c0.3,0.2,0.4,0.6,0.2,0.9l0,0.1C107.4,49.1,106.8,49.3,106.4,49z"/>
		</g>
	</g>
</g>
</svg>
